# xmcd
#
# Track frame offsets:
#	150
#	12805
#	26715
#	39417
#	61547
#	76510
#	90345
#	102592
#	117197
#	128080
#
# Disc length: 1900 seconds
#
# Revision: 0
# Processed by: cddbd v1.5.2PL0 Copyright (c) Steve Scherf et al.
# Submitted via: EasyCDDAExtractor 12.0.1.1
#
DISCID=66076a0a
DTITLE=Dwight Yoakam - Guitars Cadillacs Etc
DYEAR=1986
DGENRE=Country
TTITLE0=Honky Tonk Man
TTITLE1=It Won't Hurt
TTITLE2=I'll Be Gone
TTITLE3=South of Cinnicinnati
TTITLE4=Bury Me
TTITLE5=Guitars Cadillacs
TTITLE6=Twenty Years
TTITLE7=Ring of Fire
TTITLE8=Miner's Prayer
TTITLE9=Heartaches By the Number
EXTD=
EXTT0=
EXTT1=
EXTT2=
EXTT3=
EXTT4=
EXTT5=
EXTT6=
EXTT7=
EXTT8=
EXTT9=
PLAYORDER=
